<?xml version="1.0" encoding="utf-8"?>
<svg version="1.1" xmlns="http://www.w3.org/2000/svg" xmlns:xlink="http://www.w3.org/1999/xlink" x="0px" y="0px"
	 viewBox="0 0 283.5 283.5" style="enable-background:new 0 0 283.5 283.5;" xml:space="preserve">
<style type="text/css">
	.st0{fill:#EFEFEF;}
	.st1{opacity:0.65;fill:#FFFFFF;enable-background:new;}
	.st2{fill:#B9B9B9;}
	.st3{fill:#999999;}
</style>
<g>
	<g>
		<path class="st0" d="M48.8,17.7v248h186v-186l-62-62L48.8,17.7L48.8,17.7z"/>
		<path class="st1" d="M172.8,79.4V17.7l62,62L172.8,79.4z"/>
		<path class="st2" d="M219.2,95.2v77.5l-62-77.5H219.2z"/>
		<path class="st3" d="M48.8,17.7v248h186v-186h-0.2l0.1-0.1l-61.8-61.8l-0.1,0.1v-0.2L48.8,17.7L48.8,17.7z M64.2,33.2h93v62h62
			v155h-155V33.2z M172.8,39.6l40.1,40.1h-40.1V39.6z"/>
		<path d="M188.6,187.9l-10.2-24.5l0,0c3.8-1.6,5.5-5.7,3.9-9.5c-1.6-3.8-5.7-5.5-9.5-3.9l0,0l-10.2-24.5c-1-2.5-3.9-3.6-6.3-2.6
			c-2.5,1-3.6,3.8-2.6,6.3l0.5,1.2c-5.2,6.5-21.2,25.6-31.9,30.1l-22.3,9.2c-2.4,1-3.6,3.9-2.6,6.3l0.4,0.9c-3.2,3.4-4.3,8.4-2.5,13
			c1.9,4.6,6.3,7.4,10.9,7.5l0.4,0.9c0.9,2.1,3.1,3.3,5.2,2.9l20.7,24.5c1.1,1.4,2.8,1.7,4,0.9c4.5-2.4,7.5-5.2,9-7.4
			c0.3-0.4,0.7-0.8,1-1.4c0.5-2-0.4-4-2.1-5.1c-1.9-1.3-5.5-4.3-9.3-10.5l0.2-0.1c2.9-1.2,4-4.8,2.2-7.4l-2.3-3
			c11.4-4.7,35.6-2.3,43.8-1.4l0.5,1.3c1,2.5,3.9,3.6,6.3,2.6C188.4,193.2,189.6,190.4,188.6,187.9z"/>
	</g>
</g>
</svg>
