<?xml version="1.0" encoding="utf-8"?>
<svg version="1.1" xmlns="http://www.w3.org/2000/svg" x="0px" y="0px"
	 viewBox="0 0 16 16" style="enable-background:new 0 0 16 16;" xml:space="preserve">
<style type="text/css">
	.st0{opacity:0.5;}
	.st1{fill:#EFEFEF;}
	.st2{opacity:0.65;fill:#FFFFFF;enable-background:new;}
	.st3{fill:#B9B9B9;}
	.st4{fill:#666666;}
	.st5{fill:#999999;}
	.st6{fill:#FFFFFF;}
	.st7{fill:#663399;}
</style>
<g class="st0">
	<path class="st1" d="M1,1v14h10.5V4.5L8,1H1z"/>
	<path class="st2" d="M8,4.5V1l3.5,3.5L8,4.5z"/>
	<path class="st3" d="M10.6,5.4v4.4L7.1,5.4H10.6z"/>
	<path class="st4" d="M3.3,3.3h3.8v0.8H3.3V3.3z"/>
	<path class="st3" d="M3.3,11.9h5.9v0.8H3.3V11.9z"/>
	<path class="st3" d="M3.3,10.2h5.9V11H3.3V10.2z"/>
	<path class="st3" d="M3.3,8.5h5.9v0.8H3.3V8.5z"/>
	<path class="st3" d="M3.3,6.8h5.9v0.8H3.3V6.8z"/>
	<path class="st3" d="M3.3,5h5.9v0.8H3.3V5z"/>
	<path class="st5" d="M1,1v14h10.5V4.5l0,0L8,1H1z M1.9,1.9h5.2v3.5h3.5v8.8H1.9V1.9z M8,2.2l2.3,2.3H8V2.2z"/>
	<circle class="st6" cx="11.1" cy="11.4" r="2.2"/>
	<path class="st7" d="M11.1,8.8c-1.7,0-3.3,1.1-3.9,2.7c0.9,2.2,3.3,3.3,5.5,2.4c1.1-0.4,2-1.3,2.4-2.4C14.4,9.8,12.8,8.8,11.1,8.8z
		 M11.1,13.2c-1,0-1.8-0.8-1.8-1.8c0-1,0.8-1.8,1.8-1.8c1,0,1.8,0.8,1.8,1.8c0,0,0,0,0,0l0,0C12.8,12.4,12.1,13.2,11.1,13.2z
		 M11.1,10.4c-0.6,0-1.1,0.5-1.1,1.1c0,0,0,0,0,0c0,0.6,0.5,1,1.1,1.1c0.6,0,1.1-0.5,1.1-1.1c0,0,0,0,0,0l0,0
		C12.1,10.8,11.7,10.4,11.1,10.4z"/>
</g>
</svg>
