<?xml version="1.0" encoding="utf-8"?>
<svg version="1.1" xmlns="http://www.w3.org/2000/svg" x="0px" y="0px"
	 viewBox="0 0 16 16" style="enable-background:new 0 0 16 16;" xml:space="preserve">
<style type="text/css">
	.st0{fill:#EFEFEF;}
	.st1{opacity:0.65;fill:#FFFFFF;enable-background:new;}
	.st2{fill:#B9B9B9;}
	.st3{fill:#999999;}
</style>
<g>
	<g>
		<path class="st0" d="M2.7,1v14h10.5V4.5L9.7,1L2.7,1L2.7,1z"/>
		<path class="st1" d="M9.7,4.5V1l3.5,3.5L9.7,4.5z"/>
		<path class="st2" d="M12.4,5.4v4.4L8.9,5.4H12.4z"/>
		<path class="st3" d="M2.7,1v14h10.5V4.5h0l0,0L9.8,1l0,0v0L2.7,1L2.7,1z M3.6,1.9h5.2v3.5h3.5v8.8H3.6V1.9z M9.7,2.2L12,4.5H9.7
			L9.7,2.2L9.7,2.2z"/>
		<path d="M10.6,10.6l-0.6-1.4l0,0c0.2-0.1,0.3-0.3,0.2-0.5C10.2,8.5,10,8.4,9.7,8.5l0,0L9.2,7.1C9.1,6.9,9,6.9,8.8,6.9
			C8.7,7,8.6,7.2,8.7,7.3l0,0.1C8.4,7.7,7.5,8.8,6.9,9.1L5.6,9.6C5.5,9.6,5.4,9.8,5.5,9.9l0,0.1c-0.2,0.2-0.2,0.5-0.1,0.7
			C5.5,11,5.7,11.1,6,11.1l0,0.1c0.1,0.1,0.2,0.2,0.3,0.2l1.2,1.4c0.1,0.1,0.2,0.1,0.2,0.1c0.3-0.1,0.4-0.3,0.5-0.4c0,0,0,0,0.1-0.1
			c0-0.1,0-0.2-0.1-0.3c-0.1-0.1-0.3-0.2-0.5-0.6l0,0c0.2-0.1,0.2-0.3,0.1-0.4l-0.1-0.2c0.6-0.3,2-0.1,2.5-0.1l0,0.1
			c0.1,0.1,0.2,0.2,0.4,0.1C10.6,10.9,10.7,10.7,10.6,10.6z"/>
	</g>
</g>
</svg>
