<svg xmlns="http://www.w3.org/2000/svg" xml:space="preserve" style="enable-background:new 0 0 16 16" viewBox="0 0 16 16"><style>.st3{fill:#b9b9b9}</style><g style="opacity:.5"><path d="M1 1v14h10.5V4.5L8 1H1z" style="fill:#efefef"/><path d="M8 4.5V1l3.5 3.5H8z" style="opacity:.65;fill:#fff;enable-background:new"/><path d="M10.6 5.4v4.4L7.1 5.4h3.5z" class="st3"/><path d="M3.3 3.3h3.8v.8H3.3v-.8z" style="fill:#666"/><path d="M3.3 11.9h5.9v.8H3.3v-.8zM3.3 10.2h5.9v.8H3.3v-.8zM3.3 8.5h5.9v.8H3.3v-.8zM3.3 6.8h5.9v.8H3.3v-.8zM3.3 5h5.9v.8H3.3V5z" class="st3"/><path d="M1 1v14h10.5V4.5L8 1H1zm.9.9h5.2v3.5h3.5v8.8H1.9V1.9zm6.1.3 2.3 2.3H8V2.2z" style="fill:#999"/><circle cx="11.1" cy="11.4" r="2.2" style="fill:#fff"/><path d="M11.1 8.8c-1.7 0-3.3 1.1-3.9 2.7.9 2.2 3.3 3.3 5.5 2.4 1.1-.4 2-1.3 2.4-2.4-.7-1.7-2.3-2.7-4-2.7zm0 4.4c-1 0-1.8-.8-1.8-1.8s.8-1.8 1.8-1.8 1.8.8 1.8 1.8c-.1 1-.8 1.8-1.8 1.8zm0-2.8c-.6 0-1.1.5-1.1 1.1 0 .6.5 1 1.1 1.1.6 0 1.1-.5 1.1-1.1-.1-.7-.5-1.1-1.1-1.1z" style="fill:#639"/></g></svg>