<svg xmlns="http://www.w3.org/2000/svg" xml:space="preserve" style="enable-background:new 0 0 16 16" viewBox="0 0 16 16"><g style="opacity:.5"><path d="M2.7 1v14h10.5V4.5L9.7 1h-7z" style="fill:#efefef"/><path d="M9.7 4.5V1l3.5 3.5H9.7z" style="opacity:.65;fill:#fff;enable-background:new"/><path d="M12.4 5.4v4.4L8.9 5.4h3.5z" style="fill:#b9b9b9"/><path d="M2.7 1v14h10.5V4.5L9.8 1H2.7zm.9.9h5.2v3.5h3.5v8.8H3.6V1.9zm6.1.3L12 4.5H9.7V2.2z" style="fill:#999"/><path d="M10.6 10.6 10 9.2c.2-.1.3-.3.2-.5 0-.2-.2-.3-.5-.2l-.5-1.4c-.1-.2-.2-.2-.4-.2-.1.1-.2.3-.1.4v.1c-.3.3-1.2 1.4-1.8 1.7l-1.3.5c-.1 0-.2.2-.1.3v.1c-.2.2-.2.5-.1.7.1.3.3.4.6.4v.1c.1.1.2.2.3.2l1.2 1.4c.1.1.2.1.2.1.3-.1.4-.3.5-.4l.1-.1c0-.1 0-.2-.1-.3-.1-.1-.3-.2-.5-.6.2-.1.2-.3.1-.4l-.1-.2c.6-.3 2-.1 2.5-.1v.1c.1.1.2.2.4.1 0-.1.1-.3 0-.4z"/></g></svg>