<?xml version="1.0" encoding="utf-8"?>
<svg version="1.1" xmlns="http://www.w3.org/2000/svg" x="0px" y="0px"
	 viewBox="0 0 16 16" style="enable-background:new 0 0 16 16;" xml:space="preserve">
<style type="text/css">
	.st0{opacity:0.5;}
	.st1{fill:#EFEFEF;}
	.st2{opacity:0.65;fill:#FFFFFF;enable-background:new;}
	.st3{fill:#B9B9B9;}
	.st4{fill:#666666;}
	.st5{fill:#999999;}
	.st6{fill:#F16529;}
</style>
<g class="st0">
	<path class="st1" d="M1,1v14h10.5V4.5L8,1H1z"/>
	<path class="st2" d="M8,4.5V1l3.5,3.5L8,4.5z"/>
	<path class="st3" d="M10.6,5.4v4.4L7.1,5.4H10.6z"/>
	<path class="st4" d="M3.3,3.3h3.9v0.8H3.3V3.3z"/>
	<path class="st3" d="M3.3,12h6v0.8h-6L3.3,12z"/>
	<path class="st3" d="M3.3,10.2h6V11h-6L3.3,10.2z"/>
	<path class="st3" d="M3.3,8.5h6v0.8h-6L3.3,8.5z"/>
	<path class="st3" d="M3.3,6.7h6v0.8h-6L3.3,6.7z"/>
	<path class="st3" d="M3.3,5h6v0.8h-6L3.3,5z"/>
	<path class="st5" d="M1,1v14h10.5V4.5l0,0L8,1H1z M1.9,1.9h5.2v3.5h3.5v8.8H1.9L1.9,1.9z M8,2.2l2.3,2.3H8V2.2z"/>
	<circle class="st6" cx="13.2" cy="12.4" r="1.8"/>
	<rect x="7.2" y="10.6" class="st6" width="3.5" height="3.5"/>
	<path class="st6" d="M8.7,9.8l2.5-3.2l2.5,3.2H8.7z"/>
</g>
</svg>
