<?xml version="1.0" encoding="utf-8"?>
<svg version="1.1" xmlns="http://www.w3.org/2000/svg" x="0px" y="0px"
	 viewBox="0 0 16 16" style="enable-background:new 0 0 16 16;" xml:space="preserve">
<style type="text/css">
	.st0{opacity:0.5;}
	.st1{fill:#EFEFEF;}
	.st2{opacity:0.65;fill:#FFFFFF;enable-background:new;}
	.st3{fill:#B9B9B9;}
	.st4{fill:#666666;}
	.st5{fill:#999999;}
	.st6{fill:#FFFFFF;}
</style>
<g class="st0">
	<path class="st1" d="M1,0.9v14h10.5V4.4L8,0.9H1z"/>
	<path class="st2" d="M8,4.4V0.9l3.5,3.5L8,4.4z"/>
	<path class="st3" d="M10.6,5.3v4.4L7.1,5.3H10.6z"/>
	<path class="st4" d="M3.3,3.2h3.9V4H3.3V3.2z"/>
	<path class="st3" d="M3.3,11.9h6v0.8h-6L3.3,11.9z"/>
	<path class="st3" d="M3.3,10.1h6v0.8h-6L3.3,10.1z"/>
	<path class="st3" d="M3.3,8.4h6v0.8h-6L3.3,8.4z"/>
	<path class="st3" d="M3.3,6.7h6v0.8h-6L3.3,6.7z"/>
	<path class="st3" d="M3.3,4.9h6v0.8h-6L3.3,4.9z"/>
	<path class="st5" d="M1,0.9v14h10.5V4.4l0,0L8,0.9H1z M1.9,1.8h5.2v3.5h3.5v8.8H1.9L1.9,1.8z M8,2.1l2.3,2.3H8V2.1z"/>
	<path d="M14.4,13.2l-2.7-6.1H9.2v0.9h1l-2.4,5.2H7.1v0.9h2.5v-0.9H8.8l0.6-1.2h2.5l0.6,1.2H12v0.9h3v-0.9H14.4z M9.8,11l0.9-2
		l0.9,2H9.8z"/>
	<polygon class="st6" points="11.6,11 10.7,9.1 9.8,11 	"/>
</g>
</svg>
