<?xml version="1.0" encoding="utf-8"?>
<svg version="1.1" id="Ebene_1" xmlns="http://www.w3.org/2000/svg" xmlns:xlink="http://www.w3.org/1999/xlink" x="0px" y="0px"
	 viewBox="0 0 64 64" style="enable-background:new 0 0 64 64;" xml:space="preserve">
<style type="text/css">
	.st0{fill-rule:evenodd;clip-rule:evenodd;fill:#E8A33D;}
	.st1{fill-rule:evenodd;clip-rule:evenodd;fill:#FFFFFF;}
	.st2{fill:#EAEAEA;}
	.st3{fill-rule:evenodd;clip-rule:evenodd;fill:#FFC857;}
</style>
<path class="st0" d="M64,16H32l-6-6H0v44h64V16z"/>
<path class="st1" d="M2.5,12.5h59v39h-59V12.5z"/>
<path class="st2" d="M61,13v38H3V13H61 M62,12H2v40h60V12z"/>
<path class="st3" d="M0,22h26l6-6h32v38H0V22z"/>
<g>
	<path d="M19.4,39.3c0.5,1.2,1.7,2,3,2l0.1,0.3c0.2,0.6,0.8,0.9,1.4,0.8l5.6,6.7c0.3,0.4,0.8,0.5,1.1,0.2c1.2-0.7,2-1.4,2.4-2
		c0.1-0.1,0.2-0.2,0.3-0.4c0.1-0.5-0.1-1.1-0.6-1.4c-0.5-0.4-1.5-1.2-2.5-2.8l0,0c0.8-0.3,1.1-1.3,0.6-2l-0.6-0.8
		c3.1-1.3,9.7-0.7,11.9-0.4l0.1,0.4c0.3,0.7,1,1,1.7,0.7c0.7-0.3,1-1,0.7-1.7L42,32.1l0,0c1-0.4,1.5-1.5,1.1-2.6
		c-0.4-1-1.5-1.5-2.6-1.1h0l-2.8-6.7c-0.3-0.7-1.1-1-1.7-0.7c-0.7,0.3-1,1-0.7,1.7l0.1,0.3c-1.4,1.8-5.8,7-8.7,8.2l-6.1,2.5
		c-0.7,0.3-1,1-0.7,1.7l0.1,0.2C19.2,36.7,18.9,38.1,19.4,39.3z"/>
</g>
</svg>
