<?xml version="1.0" encoding="utf-8"?>
<svg version="1.1" xmlns="http://www.w3.org/2000/svg" x="0px" y="0px"
	 viewBox="0 0 16 16" style="enable-background:new 0 0 16 16;" xml:space="preserve">
<style type="text/css">
	.st0{opacity:0.5;}
	.st1{fill:#EFEFEF;}
	.st2{opacity:0.65;fill:#FFFFFF;enable-background:new;}
	.st3{fill:#B9B9B9;}
	.st4{fill:#666666;}
	.st5{fill:#999999;}
	.st6{fill:#5599FF;}
</style>
<g class="st0">
	<path class="st1" d="M1,1v14h10.5V4.5L8,1H1z"/>
	<path class="st2" d="M8,4.4V1l3.5,3.5L8,4.4z"/>
	<path class="st3" d="M10.6,5.3v4.4L7.1,5.3H10.6z"/>
	<path class="st4" d="M3.3,3.3h3.8V4H3.3V3.3z"/>
	<path class="st3" d="M3.3,11.9h5.9v0.8H3.3V11.9z"/>
	<path class="st3" d="M3.3,10.2h5.9V11H3.3V10.2z"/>
	<path class="st3" d="M3.3,8.4h5.9v0.8H3.3V8.4z"/>
	<path class="st3" d="M3.3,6.7h5.9v0.8H3.3V6.7z"/>
	<path class="st3" d="M3.3,5h5.9v0.8H3.3V5z"/>
	<path class="st5" d="M1,1v14h10.5V4.5l0,0L8,1H1z M1.9,1.9h5.2v3.5h3.5v8.7H1.9V1.9z M8,2.2l2.3,2.3H8V2.2z"/>
	<path class="st6" d="M14.6,7.5l-2.4-0.3L8,11.3l2.8,2.8L15,9.9L14.6,7.5z M10.5,12.2c-0.2,0.2-0.5,0.2-0.7,0
		c-0.2-0.2-0.2-0.5,0-0.7c0.2-0.2,0.5-0.2,0.7,0c0,0,0,0,0,0C10.7,11.8,10.7,12.1,10.5,12.2z"/>
</g>
</svg>
