<svg xmlns="http://www.w3.org/2000/svg" xml:space="preserve" style="enable-background:new 0 0 16 16" viewBox="0 0 16 16"><style>.st3{fill:#b9b9b9}</style><g style="opacity:.5"><path d="M1 1v14h10.5V4.5L8 1H1z" style="fill:#efefef"/><path d="M8 4.4V1l3.5 3.5L8 4.4z" style="opacity:.65;fill:#fff;enable-background:new"/><path d="M10.6 5.3v4.4L7.1 5.3h3.5z" class="st3"/><path d="M3.3 3.3h3.8V4H3.3v-.7z" style="fill:#666"/><path d="M3.3 11.9h5.9v.8H3.3v-.8zM3.3 10.2h5.9v.8H3.3v-.8zM3.3 8.4h5.9v.8H3.3v-.8zM3.3 6.7h5.9v.8H3.3v-.8zM3.3 5h5.9v.8H3.3V5z" class="st3"/><path d="M1 1v14h10.5V4.5L8 1H1zm.9.9h5.2v3.5h3.5v8.7H1.9V1.9zm6.1.3 2.3 2.3H8V2.2z" style="fill:#999"/><path d="m14.6 7.5-2.4-.3L8 11.3l2.8 2.8L15 9.9l-.4-2.4zm-4.1 4.7c-.2.2-.5.2-.7 0-.2-.2-.2-.5 0-.7.2-.2.5-.2.7 0 .2.3.2.6 0 .7z" style="fill:#59f"/></g></svg>