<svg xmlns="http://www.w3.org/2000/svg" xml:space="preserve" style="enable-background:new 0 0 64 64" viewBox="0 0 64 64"><path d="M64 16H32l-6-6H0v44h64V16z" style="fill-rule:evenodd;clip-rule:evenodd;fill:#e8a33d"/><path d="M2.5 12.5h59v39h-59v-39z" style="fill-rule:evenodd;clip-rule:evenodd;fill:#fff"/><path d="M61 13v38H3V13h58m1-1H2v40h60V12z" style="fill:#eaeaea"/><path d="M0 22h26l6-6h32v38H0V22z" style="fill-rule:evenodd;clip-rule:evenodd;fill:#ffc857"/><path d="M19.4 39.3c.5 1.2 1.7 2 3 2l.1.3c.2.6.8.9 1.4.8l5.6 6.7c.3.4.8.5 1.1.2 1.2-.7 2-1.4 2.4-2 .1-.1.2-.2.3-.4.1-.5-.1-1.1-.6-1.4-.5-.4-1.5-1.2-2.5-2.8.8-.3 1.1-1.3.6-2l-.6-.8c3.1-1.3 9.7-.7 11.9-.4l.1.4c.3.7 1 1 1.7.7.7-.3 1-1 .7-1.7L42 32.1c1-.4 1.5-1.5 1.1-2.6-.4-1-1.5-1.5-2.6-1.1l-2.8-6.7c-.3-.7-1.1-1-1.7-.7-.7.3-1 1-.7 1.7l.1.3c-1.4 1.8-5.8 7-8.7 8.2l-6.1 2.5c-.7.3-1 1-.7 1.7l.1.2c-.8 1.1-1.1 2.5-.6 3.7z"/></svg>