<svg xmlns="http://www.w3.org/2000/svg" xml:space="preserve" style="enable-background:new 0 0 16 16" viewBox="0 0 16 16"><style>.st3{fill:#b9b9b9}.st6{fill:#f16529}</style><g style="opacity:.5"><path d="M1 1v14h10.5V4.5L8 1H1z" style="fill:#efefef"/><path d="M8 4.5V1l3.5 3.5H8z" style="opacity:.65;fill:#fff;enable-background:new"/><path d="M10.6 5.4v4.4L7.1 5.4h3.5z" class="st3"/><path d="M3.3 3.3h3.9v.8H3.3v-.8z" style="fill:#666"/><path d="M3.3 12h6v.8h-6V12zM3.3 10.2h6v.8h-6v-.8zM3.3 8.5h6v.8h-6v-.8zM3.3 6.7h6v.8h-6v-.8zM3.3 5h6v.8h-6V5z" class="st3"/><path d="M1 1v14h10.5V4.5L8 1H1zm.9.9h5.2v3.5h3.5v8.8H1.9V1.9zm6.1.3 2.3 2.3H8V2.2z" style="fill:#999"/><circle cx="13.2" cy="12.4" r="1.8" class="st6"/><path d="M7.2 10.6h3.5v3.5H7.2zM8.7 9.8l2.5-3.2 2.5 3.2h-5z" class="st6"/></g></svg>