<?xml version="1.0" encoding="utf-8"?>
<svg version="1.1" xmlns="http://www.w3.org/2000/svg" xmlns:xlink="http://www.w3.org/1999/xlink" x="0px" y="0px"
	 viewBox="0 0 283.5 283.5" style="enable-background:new 0 0 283.5 283.5;" xml:space="preserve">
<style type="text/css">
	.st0{fill:#EFEFEF;}
	.st1{opacity:0.65;fill:#FFFFFF;enable-background:new;}
	.st2{fill:#B9B9B9;}
	.st3{fill:#666666;}
	.st4{fill:#999999;}
	.st5{fill:#5599FF;}
	.st6{fill:#F16529;}
	.st7{fill:#FFFFFF;}
	.st8{fill:#663399;}
</style>
<g>
	<g>
		<path class="st0" d="M17.5,17.7v248h186v-186l-62-62H17.5z"/>
		<path class="st1" d="M141.5,79.4V17.7l62,62L141.5,79.4z"/>
		<path class="st2" d="M188,95.2v77.5l-62-77.5H188z"/>
		<path class="st3" d="M58,58.2h68V72H58V58.2z"/>
		<path class="st2" d="M58,211.4h105v13.8H58V211.4z"/>
		<path class="st2" d="M58,180.7h105v13.8H58V180.7z"/>
		<path class="st2" d="M58,150.1h105v13.8H58V150.1z"/>
		<path class="st2" d="M58,119.5h105v13.8H58V119.5z"/>
		<path class="st2" d="M58,88.8h105v13.8H58V88.8z"/>
		<path class="st4" d="M17.5,17.7v248h186v-186h-0.2l0.1-0.1l-61.8-61.8l-0.1,0.1v-0.2H17.5z M33,33.2h93v62h62v155H33V33.2z
			 M141.5,39.6l40.1,40.1h-40.1V39.6z"/>
	</g>
	<circle class="st7" cx="195.8" cy="202.6" r="39.3"/>
	<path class="st8" d="M195.8,155.1c-30.8,0-58.5,18.9-69.7,47.6c15.2,38.5,58.7,57.5,97.2,42.3c19.4-7.6,34.7-22.9,42.3-42.3
		C254.2,174,226.6,155.1,195.8,155.1z M195.8,234.5c-17.5,0-31.7-14.2-31.7-31.7s14.2-31.7,31.7-31.7c17.5,0,31.7,14.2,31.7,31.7
		l0,0C227.5,220.2,213.3,234.4,195.8,234.5z M196.3,183.6c-10.6,0-19.2,8.7-19,19.3c0.1,10.1,8.7,18.6,18.8,18.8
		c10.6,0.1,19.3-8.4,19.3-19l0,0C215.3,192.1,206.7,183.6,196.3,183.6L196.3,183.6z"/>
</g>
</svg>
