<svg xmlns="http://www.w3.org/2000/svg" xml:space="preserve" style="enable-background:new 0 0 16 16" viewBox="0 0 16 16"><style>.st3{fill:#b9b9b9}</style><g style="opacity:.5"><path d="M1 .9v14h10.5V4.4L8 .9H1z" style="fill:#efefef"/><path d="M8 4.4V.9l3.5 3.5H8z" style="opacity:.65;fill:#fff;enable-background:new"/><path d="M10.6 5.3v4.4L7.1 5.3h3.5z" class="st3"/><path d="M3.3 3.2h3.9V4H3.3v-.8z" style="fill:#666"/><path d="M3.3 11.9h6v.8h-6v-.8zM3.3 10.1h6v.8h-6v-.8zM3.3 8.4h6v.8h-6v-.8zM3.3 6.7h6v.8h-6v-.8zM3.3 4.9h6v.8h-6v-.8z" class="st3"/><path d="M1 .9v14h10.5V4.4L8 .9H1zm.9.9h5.2v3.5h3.5v8.8H1.9V1.8zm6.1.3 2.3 2.3H8V2.1z" style="fill:#999"/><path d="m14.4 13.2-2.7-6.1H9.2V8h1l-2.4 5.2h-.7v.9h2.5v-.9h-.8l.6-1.2h2.5l.6 1.2H12v.9h3v-.9h-.6zM9.8 11l.9-2 .9 2H9.8z"/><path d="m11.6 11-.9-1.9-.9 1.9z" style="fill:#fff"/></g></svg>