<?xml version="1.0" encoding="utf-8"?>
<svg version="1.1" xmlns="http://www.w3.org/2000/svg" xmlns:xlink="http://www.w3.org/1999/xlink" x="0px" y="0px"
	 viewBox="0 0 283.5 283.5" style="enable-background:new 0 0 283.5 283.5;" xml:space="preserve">
<style type="text/css">
	.st0{fill:#999999;}
	.st1{opacity:0.2;}
	.st2{fill:#663399;}
</style>
<path class="st0" d="M17.7,17.8v248h248v-248L17.7,17.8L17.7,17.8z M35.4,35.5H248v212.6H35.4V35.5z"/>
<g class="st1">
	<path d="M68.3,165c2.9,7.1,9.7,11.4,16.8,11.6l0.6,1.5c1.4,3.2,4.8,4.9,8,4.5l32,37.9c1.7,2,4.3,2.6,6.2,1.4
		c7-3.7,11.6-8,13.9-11.4c0.6-0.6,1.1-1.2,1.5-2.2c0.8-3.1-0.6-6.2-3.2-8c-2.8-2-8.5-6.6-14.3-16.1l0.2-0.1
		c4.5-1.9,6.2-7.4,3.4-11.3l-3.6-4.8c17.6-7.4,54.9-3.7,67.7-2.2l0.8,2c1.5,3.7,5.9,5.6,9.7,4c3.7-1.5,5.6-5.9,4-9.7l-15.7-37.9l0,0
		c5.9-2.5,8.5-8.8,6-14.7c-2.5-5.9-8.8-8.5-14.5-6l-0.1,0l-15.7-37.9c-1.5-3.7-6-5.6-9.7-4c-3.7,1.5-5.6,5.9-4,9.7l0.8,1.9
		c-8,10.1-32.9,39.7-49.3,46.5l-34.5,14.2c-3.7,1.5-5.6,5.9-4,9.7L72,145C67.1,150.3,65.4,158.2,68.3,165z"/>
</g>
<path class="st2" d="M180.8,162.6c-24.2,0-46,14.8-54.8,37.4c11.9,30.2,46.1,45.2,76.4,33.2c15.2-6,27.3-18,33.2-33.2
	C226.7,177.4,205,162.6,180.8,162.6z M180.8,224.9c-13.7,0-24.9-11.2-24.9-24.9s11.2-24.9,24.9-24.9c13.7,0,24.9,11.2,24.9,24.9l0,0
	C205.7,213.7,194.6,224.9,180.8,224.9z M181.2,184.9c-8.3,0-15.1,6.8-14.9,15.2c0.1,7.9,6.8,14.6,14.8,14.8
	c8.3,0.1,15.2-6.6,15.2-14.9l0,0C196.1,191.6,189.4,184.9,181.2,184.9L181.2,184.9z"/>
</svg>
