<?xml version="1.0" encoding="utf-8"?>
<svg version="1.1" xmlns="http://www.w3.org/2000/svg" xmlns:xlink="http://www.w3.org/1999/xlink" x="0px" y="0px"
	 viewBox="0 0 283.5 283.5" style="enable-background:new 0 0 283.5 283.5;" xml:space="preserve">
<style type="text/css">
	.st0{fill:#999999;}
	.st1{opacity:0.2;}
	.st2{fill:#F16529;}
</style>
<path class="st0" d="M17.7,17.8v248h248v-248L17.7,17.8L17.7,17.8z M35.4,35.5H248v212.6H35.4V35.5z"/>
<g class="st1">
	<path d="M68.3,165c2.9,7.1,9.7,11.4,16.8,11.6l0.6,1.5c1.4,3.2,4.8,4.9,8,4.5l32,37.9c1.7,2,4.3,2.6,6.2,1.4
		c7-3.7,11.6-8,13.9-11.4c0.6-0.6,1.1-1.2,1.5-2.2c0.8-3.1-0.6-6.2-3.2-8c-2.8-2-8.5-6.6-14.3-16.1l0.2-0.1
		c4.5-1.9,6.2-7.4,3.4-11.3l-3.6-4.8c17.6-7.4,54.9-3.7,67.7-2.2l0.8,2c1.5,3.7,5.9,5.6,9.7,4c3.7-1.5,5.6-5.9,4-9.7l-15.7-37.9l0,0
		c5.9-2.5,8.5-8.8,6-14.7c-2.5-5.9-8.8-8.5-14.5-6l-0.1,0l-15.7-37.9c-1.5-3.7-6-5.6-9.7-4c-3.7,1.5-5.6,5.9-4,9.7l0.8,1.9
		c-8,10.1-32.9,39.7-49.3,46.5l-34.5,14.2c-3.7,1.5-5.6,5.9-4,9.7L72,145C67.1,150.3,65.4,158.2,68.3,165z"/>
</g>
<g>
	
		<ellipse transform="matrix(0.1602 -0.9871 0.9871 0.1602 -31.968 387.1662)" class="st2" cx="211.5" cy="212.4" rx="24.7" ry="24.7"/>
	<rect x="127.1" y="188.6" class="st2" width="48.5" height="48.5"/>
	<path class="st2" d="M148.4,177.3l34.6-44.8l34.6,44.8H148.4z"/>
</g>
</svg>
