<?xml version="1.0" encoding="utf-8"?>
<svg version="1.1" xmlns="http://www.w3.org/2000/svg" xmlns:xlink="http://www.w3.org/1999/xlink" x="0px" y="0px"
	 viewBox="0 0 256 256" style="enable-background:new 0 0 256 256;" xml:space="preserve">
<style type="text/css">
	.st0{fill:#3D4DD2;}
	.st1{fill:#FFFFFF;}
	.st2{opacity:0.3;fill:#3D4DD2;enable-background:new;}
	.st3{opacity:0.7;fill:#3D4DD2;}
</style>
<g>
	<g>
	</g>
	<rect class="st0" width="256" height="256"/>
	<g>
		<path class="st1" d="M147.9,26H65.2c0,0,0,0,0,0c-9.3,0-16.9,7.6-16.9,17v166.3c0,0,0,0,0,0.1c0,9.4,7.6,16.9,16.9,16.9h125.7
			c9.3,0,16.9-7.5,16.9-16.9V86.1L147.9,26z"/>
	</g>
	<polygon class="st2" points="208.4,86.4 148,26 148,86.4 	"/>
	<g>
		<path class="st0" d="M118.5,183.5l-0.2,0.1c-1.5-2.4-2.9-5.2-4.4-8.6l4.5-1.8l2.3,3C122.5,178.7,121.4,182.3,118.5,183.5z"/>
		<path class="st3" d="M137.4,111.8l24.8,59.9c-8.2-1-32.4-3.4-43.8,1.4l-12.9-31.2C116.1,137.5,132.2,118.3,137.4,111.8z"/>
		<path class="st0" d="M105.5,141.9l12.9,31.2l-22.3,9.2c-0.4,0.1-0.7,0.2-1.1,0.3c-2.1,0.3-4.3-0.8-5.2-2.9l-9.2-22.3
			c-1-2.5,0.2-5.3,2.6-6.3L105.5,141.9z"/>
		<path class="st0" d="M145.8,106.9l25.8,62.4c1,2.5-0.2,5.3-2.6,6.3c-2.5,1-5.3-0.2-6.3-2.6l-25.8-62.4c-1-2.5,0.2-5.3,2.6-6.3
			C141.9,103.3,144.8,104.5,145.8,106.9z"/>
		<path class="st3" d="M165.4,135.3c1.6,3.8-0.1,7.9-3.9,9.5l0,0l-5.5-13.4l0,0C159.7,129.8,163.8,131.5,165.4,135.3z"/>
		<path class="st3" d="M129.7,199.2c-0.3,0.6-0.6,1-1,1.4c-1.5,2.2-4.5,5-9,7.4c-1.2,0.8-2.9,0.4-4-0.9L95,182.6
			c0.4-0.1,0.7-0.2,1.1-0.3l17.8-7.4c1.4,3.4,2.9,6.3,4.4,8.6c3.8,6.2,7.5,9.2,9.3,10.5C129.3,195.2,130.2,197.2,129.7,199.2z"/>
		<path class="st3" d="M80.9,158.3l8.5,20.4c-4.6-0.1-9-2.9-10.9-7.5C76.6,166.8,77.7,161.7,80.9,158.3z"/>
	</g>
</g>
<g>
</g>
</svg>
