<svg xmlns="http://www.w3.org/2000/svg" xml:space="preserve" style="enable-background:new 0 0 256 256" viewBox="0 0 256 256"><style>.st0,.st3{fill:#3d4dd2}.st3{opacity:.7}</style><path d="M0 0h256v256H0z" class="st0"/><path d="M147.9 26H65.2c-9.3 0-16.9 7.6-16.9 17v166.4c0 9.4 7.6 16.9 16.9 16.9h125.7c9.3 0 16.9-7.5 16.9-16.9V86.1L147.9 26z" style="fill:#fff"/><path d="M208.4 86.4 148 26v60.4z" style="opacity:.3;fill:#3d4dd2;enable-background:new"/><path d="m118.5 183.5-.2.1c-1.5-2.4-2.9-5.2-4.4-8.6l4.5-1.8 2.3 3c1.8 2.5.7 6.1-2.2 7.3z" class="st0"/><path d="m137.4 111.8 24.8 59.9c-8.2-1-32.4-3.4-43.8 1.4l-12.9-31.2c10.6-4.4 26.7-23.6 31.9-30.1z" class="st3"/><path d="m105.5 141.9 12.9 31.2-22.3 9.2c-.4.1-.7.2-1.1.3-2.1.3-4.3-.8-5.2-2.9l-9.2-22.3c-1-2.5.2-5.3 2.6-6.3l22.3-9.2zM145.8 106.9l25.8 62.4c1 2.5-.2 5.3-2.6 6.3-2.5 1-5.3-.2-6.3-2.6l-25.8-62.4c-1-2.5.2-5.3 2.6-6.3s5.3.2 6.3 2.6z" class="st0"/><path d="M165.4 135.3c1.6 3.8-.1 7.9-3.9 9.5l-5.5-13.4c3.7-1.6 7.8.1 9.4 3.9zM129.7 199.2c-.3.6-.6 1-1 1.4-1.5 2.2-4.5 5-9 7.4-1.2.8-2.9.4-4-.9L95 182.6c.4-.1.7-.2 1.1-.3l17.8-7.4c1.4 3.4 2.9 6.3 4.4 8.6 3.8 6.2 7.5 9.2 9.3 10.5 1.7 1.2 2.6 3.2 2.1 5.2zM80.9 158.3l8.5 20.4c-4.6-.1-9-2.9-10.9-7.5-1.9-4.4-.8-9.5 2.4-12.9z" class="st3"/></svg>