<svg xmlns="http://www.w3.org/2000/svg" xml:space="preserve" style="enable-background:new 0 0 283.5 283.5" viewBox="0 0 283.5 283.5"><path d="M172.8 17.7h-124v248h186v-186l-62-.3z" style="fill:#639af8"/><path d="m172.8 17.7 62 62h-62z" style="fill:#c9dcfd"/><path d="M234.8 79.7v77.5l-62-77.5h62z" style="fill:#5988d8"/><path d="M199.5 191 187 160.8c4.7-1.9 6.8-7 4.8-11.6-1.9-4.7-7-6.8-11.6-4.8l-12.5-30.2c-1.3-3-4.7-4.5-7.8-3.2-3 1.3-4.5 4.7-3.2 7.8l.6 1.5c-6.4 8-26.2 31.6-39.3 37l-27.5 11.4c-3 1.2-4.5 4.7-3.2 7.8l.5 1.1c-4 4.1-5.4 10.4-3 16 2.3 5.6 7.7 9.1 13.5 9.2l.5 1.1c1.1 2.6 3.8 4 6.4 3.6l25.6 30.1c1.3 1.7 3.4 2.1 5 1.2 5.5-2.9 9.3-6.4 11-9.1.4-.5.9-1 1.2-1.8.6-2.5-.4-5-2.6-6.3-2.3-1.6-6.8-5.3-11.5-12.9l.3-.1c3.6-1.5 5-5.9 2.7-9.1l-2.8-3.7c14-5.8 43.9-2.9 54-1.7l.7 1.6c1.3 3 4.7 4.5 7.8 3.2 2.7-1.4 4.1-4.9 2.9-7.9z" style="fill:#fff"/></svg>