<?xml version="1.0" encoding="utf-8"?>
<svg version="1.1" xmlns="http://www.w3.org/2000/svg" xmlns:xlink="http://www.w3.org/1999/xlink" x="0px" y="0px"
	 viewBox="0 0 283.5 283.5" style="enable-background:new 0 0 283.5 283.5;" xml:space="preserve">
<style type="text/css">
	.st0{fill:#639AF8;}
	.st1{fill:#C9DCFD;}
	.st2{fill:#5988D8;}
	.st3{fill:#FFFFFF;}
</style>
<polygon class="st0" points="172.8,17.7 48.8,17.7 48.8,265.7 234.8,265.7 234.8,79.7 172.8,79.4 "/>
<polygon class="st1" points="172.8,17.7 234.8,79.7 172.8,79.7 "/>
<path class="st2" d="M234.8,79.7v77.5l-62-77.5H234.8z"/>
<path class="st3" d="M199.5,191L187,160.8l0,0c4.7-1.9,6.8-7,4.8-11.6c-1.9-4.7-7-6.8-11.6-4.8l0,0l-12.5-30.2
	c-1.3-3-4.7-4.5-7.8-3.2c-3,1.3-4.5,4.7-3.2,7.8l0.6,1.5c-6.4,8-26.2,31.6-39.3,37l-27.5,11.4c-3,1.2-4.5,4.7-3.2,7.8l0.5,1.1
	c-4,4.1-5.4,10.4-3,16c2.3,5.6,7.7,9.1,13.5,9.2l0.5,1.1c1.1,2.6,3.8,4,6.4,3.6l25.6,30.1c1.3,1.7,3.4,2.1,5,1.2
	c5.5-2.9,9.3-6.4,11-9.1c0.4-0.5,0.9-1,1.2-1.8c0.6-2.5-0.4-5-2.6-6.3c-2.3-1.6-6.8-5.3-11.5-12.9l0.3-0.1c3.6-1.5,5-5.9,2.7-9.1
	l-2.8-3.7c14-5.8,43.9-2.9,54-1.7l0.7,1.6c1.3,3,4.7,4.5,7.8,3.2C199.3,197.5,200.7,194,199.5,191z"/>
</svg>
